<svg xmlns="http://www.w3.org/2000/svg" width="1280" height="720" viewBox="0 0 1280 720" role="img" aria-label="Annotated Projects page screenshot placeholder">
  <rect width="1280" height="720" fill="#f7faf7"/>
  <rect x="0" y="0" width="280" height="720" fill="#ffffff" stroke="#d9e4dc"/>
  <text x="36" y="56" font-family="Arial" font-size="28" font-weight="700" fill="#214d35">PhenoWorks</text>
  <text x="36" y="112" font-family="Arial" font-size="18" fill="#3b6b50">Projects</text>
  <text x="36" y="154" font-family="Arial" font-size="18" fill="#6b7f72">Studies</text>
  <text x="36" y="196" font-family="Arial" font-size="18" fill="#6b7f72">Analysis Modules</text>
  <text x="36" y="238" font-family="Arial" font-size="18" fill="#6b7f72">Analysis Pipelines</text>
  <rect x="330" y="72" width="860" height="92" rx="8" fill="#ffffff" stroke="#d9e4dc"/>
  <text x="360" y="112" font-family="Arial" font-size="30" font-weight="700" fill="#173b29">Projects</text>
  <text x="360" y="142" font-family="Arial" font-size="16" fill="#64766a">Create top-level workspaces and manage collaborators.</text>
  <rect x="1018" y="96" width="140" height="40" rx="6" fill="#2f7d4f"/>
  <text x="1045" y="122" font-family="Arial" font-size="16" font-weight="700" fill="#ffffff">New project</text>
  <rect x="330" y="196" width="860" height="350" rx="8" fill="#ffffff" stroke="#d9e4dc"/>
  <text x="360" y="244" font-family="Arial" font-size="17" font-weight="700" fill="#173b29">ID</text>
  <text x="455" y="244" font-family="Arial" font-size="17" font-weight="700" fill="#173b29">Name</text>
  <text x="710" y="244" font-family="Arial" font-size="17" font-weight="700" fill="#173b29">Owner</text>
  <text x="930" y="244" font-family="Arial" font-size="17" font-weight="700" fill="#173b29">Actions</text>
  <line x1="350" y1="266" x2="1168" y2="266" stroke="#d9e4dc"/>
  <text x="360" y="310" font-family="Arial" font-size="16" fill="#173b29">1</text>
  <text x="455" y="310" font-family="Arial" font-size="16" fill="#173b29">Spring Nitrogen Trial</text>
  <text x="710" y="310" font-family="Arial" font-size="16" fill="#173b29">Admin User</text>
  <circle cx="945" cy="304" r="15" fill="#e8f2ec"/><text x="941" y="310" font-family="Arial" font-size="16" fill="#2f7d4f">✎</text>
  <circle cx="987" cy="304" r="15" fill="#e8f2ec"/><text x="983" y="310" font-family="Arial" font-size="16" fill="#2f7d4f">↗</text>
  <path d="M1018 90 L1166 90 L1166 150" fill="none" stroke="#e79f35" stroke-width="4"/>
  <circle cx="1166" cy="150" r="7" fill="#e79f35"/>
  <text x="890" y="70" font-family="Arial" font-size="16" fill="#9a650f">Primary action creates a project.</text>
</svg>
